<?xml version="1.0" encoding="UTF-8" standalone="no"?>
<!DOCTYPE svg PUBLIC "-//W3C//DTD SVG 1.1//EN" "http://www.w3.org/Graphics/SVG/1.1/DTD/svg11.dtd">
<svg width="100%" height="100%" viewBox="0 0 800 800" version="1.1" xmlns="http://www.w3.org/2000/svg" xmlns:xlink="http://www.w3.org/1999/xlink" xml:space="preserve" xmlns:serif="http://www.serif.com/" style="fill-rule:evenodd;clip-rule:evenodd;stroke-linejoin:round;stroke-miterlimit:1.41421;">
    <g transform="matrix(3.73427,0,0,3.69682,-116.912,104.172)">
        <g transform="matrix(1,0,0,1,81.391,3.33898)">
            <path d="M51.723,35.762C51.723,41.043 50.898,45.84 49.254,50.16C47.605,54.477 45.262,58.176 42.215,61.25C39.172,64.324 35.492,66.703 31.172,68.379C26.855,70.055 22.023,70.895 16.684,70.895L0,70.895L0,1L16.684,1C22.023,1 26.855,1.809 31.172,3.422C35.492,5.039 39.172,7.367 42.215,10.414C45.262,13.457 47.605,17.121 49.254,21.41C50.898,25.695 51.723,30.48 51.723,35.762ZM37.742,35.762C37.742,28.43 35.879,22.824 32.152,18.941C28.426,15.059 23.176,13.113 16.402,13.113L13.887,13.113L13.887,58.781L16.402,58.781C23.176,58.781 28.426,56.777 32.152,52.77C35.879,48.762 37.742,43.094 37.742,35.762Z" style="fill-rule:nonzero;"/>
        </g>
        <g transform="matrix(1,0,0,1,81.391,3.33898)">
            <path d="M61.191,36.922C60.312,36.922 59.629,37.605 59.629,38.582L59.629,69.43C59.629,70.406 60.117,70.895 61.191,70.895L66.266,70.895C67.242,70.895 67.73,70.406 67.73,69.43L67.73,44.93L84.426,44.93L99.164,69.43C99.652,70.211 100.336,70.895 101.312,70.895L108.633,70.895C109.219,70.895 109.512,70.797 109.512,70.602C109.512,70.406 109.414,70.211 109.219,69.82L93.992,44.441C103.559,41.707 110.586,32.727 110.586,22.867C110.586,11.055 100.629,1 89.012,1L65.391,1C64.414,1 63.828,1.488 63.828,2.465L63.828,7.344C63.828,8.32 64.316,9.004 65.391,9.004L88.914,9.004C96.336,9.004 102.387,15.84 102.387,22.965C102.387,29.895 96.531,36.437 89.598,36.922L61.191,36.922Z" style="fill-rule:nonzero;"/>
        </g>
    </g>
    <g transform="matrix(3.73427,0,0,3.69682,-104.49,104.172)">
        <g transform="matrix(1,0,0,1,-75.6268,79.068)">
            <path d="M184.195,1L155.117,70.895L147.664,70.895L118.492,1L134.059,1L151.391,43.031L168.727,1L184.195,1Z" style="fill-rule:nonzero;"/>
        </g>
        <g transform="matrix(1,0,0,1,-75.6268,79.068)">
            <path d="M236.289,70.895L221.754,70.895L216.16,57.477L191.371,57.477L185.871,70.895L171.148,70.895L200.41,1L207.121,1L236.289,70.895ZM211.5,46.105L203.766,27.469L195.75,46.105L211.5,46.105Z" style="fill-rule:nonzero;"/>
        </g>
        <g transform="matrix(1,0,0,1,-75.6268,79.0253)">
            <path d="M299.477,70.895L282.699,70.895L268.816,48.996L254.93,70.895L238.152,70.895L260.426,35.762L238.434,1L255.117,1L268.816,22.621L282.516,1L299.195,1L277.203,35.762L299.477,70.895Z" style="fill-rule:nonzero;"/>
        </g>
    </g>
</svg>
